<svg id="Layer_1" data-name="Layer 1" xmlns="http://www.w3.org/2000/svg" viewBox="0 0 76.16 84.24"><defs><style>.cls-1{fill:#00a19a;}.cls-2{fill:#1d71b8;}</style></defs><path class="cls-1" d="M1.48,34.52c0,5.85-.16,11.77.66,17.53C5,72,23.51,84.76,43.1,81.68,56.68,79.55,72.82,73,73.26,51.52c.13-6.43.14-12.86,0-19.28a16.85,16.85,0,0,0-8.18-14.53,13.92,13.92,0,0,0-9.18-2.25v1.18c0,11.07,0,22.14,0,33.2a24.8,24.8,0,0,1-.44,4.71c-2.06,10.14-11.89,11.92-22,9.74C26,62.7,19.31,55.89,19.05,47.75a55.39,55.39,0,0,0-1.51-11.17"/><path class="cls-2" d="M30.39,19.51V6.5A4.49,4.49,0,0,1,34.87,2h8.52A4.5,4.5,0,0,1,47.87,6.5V15a4.49,4.49,0,0,1-4.48,4.48"/><path class="cls-1" d="M73.36,10.77V36.94a4.5,4.5,0,0,1-4.48,4.48H60.36a4.49,4.49,0,0,1-4.48-4.48V15.25a4.49,4.49,0,0,1,4.48-4.48"/><path class="cls-1" d="M1.47,18.19V44.35A4.5,4.5,0,0,0,6,48.84h8.52A4.49,4.49,0,0,0,19,44.35V22.67a4.49,4.49,0,0,0-4.48-4.48"/></svg>