<svg id="Layer_1" data-name="Layer 1" xmlns="http://www.w3.org/2000/svg" viewBox="0 0 325.06 175.89"><defs><style>.cls-1{fill:#00a19a;}.cls-2{fill:#1d71b8;}.cls-3{fill:#706f6f;}</style></defs><path class="cls-1" d="M231.16,75.18c0,5.85-.16,11.77.66,17.53,2.85,20,21.37,32.71,41,29.63,13.58-2.13,29.72-8.67,30.16-30.16q.21-9.65,0-19.28a16.84,16.84,0,0,0-8.19-14.53,13.91,13.91,0,0,0-9.18-2.25V57.3c0,11.07,0,22.14,0,33.2a24,24,0,0,1-.44,4.71c-2.06,10.14-11.89,11.92-22,9.74-7.42-1.59-14.07-8.4-14.34-16.54a55.39,55.39,0,0,0-1.51-11.17"/><path class="cls-2" d="M178.46,122.72V55.91a4.49,4.49,0,0,1,4.48-4.48h8.52a4.49,4.49,0,0,1,4.48,4.48v62.33a4.5,4.5,0,0,1-4.48,4.48"/><path class="cls-2" d="M204.81,122.72V55.91a4.49,4.49,0,0,1,4.48-4.48h8.52a4.49,4.49,0,0,1,4.48,4.48v62.33a4.5,4.5,0,0,1-4.48,4.48"/><path class="cls-2" d="M260.07,60.17v-13a4.5,4.5,0,0,1,4.48-4.48h8.52a4.49,4.49,0,0,1,4.48,4.48v8.53a4.49,4.49,0,0,1-4.48,4.48"/><path class="cls-1" d="M43.07,32.48v-13A4.5,4.5,0,0,1,47.55,15h8.52a4.49,4.49,0,0,1,4.48,4.48V28a4.49,4.49,0,0,1-4.48,4.48"/><path class="cls-1" d="M19.59,32.48v-13A4.5,4.5,0,0,1,24.07,15h8.52a4.49,4.49,0,0,1,4.48,4.48V28a4.49,4.49,0,0,1-4.48,4.48"/><path class="cls-1" d="M303,51.43V77.59a4.49,4.49,0,0,1-4.48,4.49H290a4.5,4.5,0,0,1-4.48-4.49V55.91A4.49,4.49,0,0,1,290,51.43"/><path class="cls-1" d="M231.16,58.84V85a4.49,4.49,0,0,0,4.48,4.48h8.52A4.49,4.49,0,0,0,248.64,85V63.33a4.5,4.5,0,0,0-4.48-4.49"/><path class="cls-2" d="M149.35,122.72V55.91a4.49,4.49,0,0,1,4.48-4.48h8.52a4.49,4.49,0,0,1,4.48,4.48v62.33a4.49,4.49,0,0,1-4.48,4.48"/><path class="cls-2" d="M38.91,37.75C26,37.75,11.07,43.33,11.07,56v60.27H66.76V56C66.76,47.56,58,37.75,38.91,37.75ZM49.5,105.11H28.33V58.74c0-2.72,0-9.82,10.58-9.82S49.5,56,49.5,58.74Z"/><path class="cls-2" d="M63.78,105.11h20V56c0-12.69,15-18.27,27.85-18.27,19.09,0,27.84,9.81,27.84,18.27v63c0,15.41-19.33,18.27-27.84,18.27-12.89,0-27.85-5.58-27.85-18.27v-2.72h-20Zm37.27,11.18c0,4.23,0,9.82,10.59,9.82s10.58-7.1,10.58-9.82V58.74c0-2.72,0-9.82-10.58-9.82s-10.59,7.1-10.59,9.82Z"/><rect class="cls-2" x="137.91" y="102.66" width="14.3" height="15.44"/><path class="cls-3" d="M29.2,144.5a5.12,5.12,0,0,1,3.56,1.31A4.16,4.16,0,0,1,34.24,149v1.6a4.16,4.16,0,0,1-1.48,3.21,5.13,5.13,0,0,1-3.56,1.32H23.32a1.61,1.61,0,0,0-1.15.43,1.33,1.33,0,0,0-.48,1v2.86c0,.2-.11.3-.32.3H20.26c-.21,0-.31-.1-.31-.3v-2.86a2.76,2.76,0,0,1,1-2.13,3.37,3.37,0,0,1,2.38-.89h.83V149a4.17,4.17,0,0,1,1.49-3.21A5.14,5.14,0,0,1,29.2,144.5ZM32.48,149a2.7,2.7,0,0,0-1-2.09,3.33,3.33,0,0,0-2.32-.87,3.39,3.39,0,0,0-2.33.87,2.7,2.7,0,0,0-1,2.09v4.57H29.2a3.33,3.33,0,0,0,2.32-.87,2.73,2.73,0,0,0,1-2.1Z"/><path class="cls-3" d="M39.84,154.87c0,.18-.1.28-.31.28H38.4c-.2,0-.31-.1-.31-.28V139.94c0-.19.11-.29.31-.29h1.13c.21,0,.31.1.31.29Z"/><path class="cls-3" d="M55.22,155.15h-.8a3.63,3.63,0,0,1-2.52-.85c-.13-.15-.2-.22-.2-.23a4.38,4.38,0,0,1-3.27,1.08H43.3c-.21,0-.31-.1-.31-.28v-1c0-.2.1-.3.31-.3h5.13a2.85,2.85,0,0,0,1.88-.46,1.68,1.68,0,0,0,.44-1.33v-3.43a2.11,2.11,0,0,0-.75-1.62,2.64,2.64,0,0,0-1.81-.67,4.35,4.35,0,0,0-2.28.48l-.45.28a.41.41,0,0,1-.19.05h0a.25.25,0,0,1-.21-.11l-.64-.82a.19.19,0,0,1-.07-.16v-.05a.26.26,0,0,1,.14-.19l.44-.28a6.06,6.06,0,0,1,3.3-.78,4.42,4.42,0,0,1,3,1.13,3.56,3.56,0,0,1,1.26,2.74v4.05a1,1,0,0,0,.34.78,1.88,1.88,0,0,0,1.28.39h1.11Z"/><path class="cls-3" d="M72.29,153.57v1.58H54.64v-1.58h5.18a4.1,4.1,0,0,1-1.24-2.95V149a4.13,4.13,0,0,1,1.48-3.2,5.46,5.46,0,0,1,7.14,0,4.13,4.13,0,0,1,1.48,3.2v4.56Zm-12-2.95a2.71,2.71,0,0,0,1,2.09,3.35,3.35,0,0,0,2.32.86h3.29V149a2.69,2.69,0,0,0-1-2.08,3.33,3.33,0,0,0-2.32-.87,3.36,3.36,0,0,0-2.32.87,2.67,2.67,0,0,0-1,2.08Zm1-8.26c-.21,0-.32-.1-.32-.29v-1.26c0-.19.11-.28.32-.28h1.18c.21,0,.32.09.32.28v1.26c0,.19-.11.29-.32.29Zm3.19,0c-.21,0-.32-.1-.32-.29v-1.26c0-.19.11-.28.32-.28h1.17c.22,0,.33.09.33.28v1.26c0,.19-.11.29-.33.29Z"/><path class="cls-3" d="M81.36,155.15h-.82a3.84,3.84,0,0,1-2.64-.79s0,0,0,0,0,0,0,0l-.11.1h0a3.23,3.23,0,0,1-2.21.73h-4.1v-1.58h4.14a1.31,1.31,0,0,0,.93-.28,1.09,1.09,0,0,0,.33-.89v-7.2a.27.27,0,0,1,.3-.3H78.3c.21,0,.32.1.32.3v7.49a.68.68,0,0,0,.21.55,2.07,2.07,0,0,0,1.4.33h1.13Zm-5.8-12.79c-.22,0-.33-.1-.33-.29v-1.26c0-.19.11-.28.33-.28h1.19c.21,0,.31.09.31.28v1.26c0,.19-.1.29-.31.29Zm3.18,0c-.21,0-.31-.1-.31-.29v-1.26c0-.19.1-.28.31-.28h1.17c.22,0,.32.09.32.28v1.26c0,.19-.1.29-.32.29Z"/><path class="cls-3" d="M98.83,144.89c.22,0,.33.1.33.29v7.23a2.55,2.55,0,0,1-.83,2,3.31,3.31,0,0,1-2.23.73H94.91a3.85,3.85,0,0,1-2.63-.8l0,0-.09.1a3.23,3.23,0,0,1-2.2.73h-1.2a3.83,3.83,0,0,1-2.63-.8h0s0,0,0,0a.49.49,0,0,0-.08.1,3.25,3.25,0,0,1-2.21.73h-3v-1.58h3l0,0a1.46,1.46,0,0,0,.92-.29,1.1,1.1,0,0,0,.33-.88v-7.24c0-.19.1-.29.31-.29h1.11c.21,0,.32.1.32.29v7.51a.74.74,0,0,0,.2.55,2.18,2.18,0,0,0,1.42.33H90a1.37,1.37,0,0,0,.94-.28,1.11,1.11,0,0,0,.33-.88v-6.66c0-.19.1-.28.3-.28h1.12c.21,0,.31.09.31.28v6.94a.71.71,0,0,0,.21.55,2.13,2.13,0,0,0,1.4.33h1.51a1.42,1.42,0,0,0,1-.28,1.1,1.1,0,0,0,.31-.88v-7.23c0-.19.11-.29.33-.29Z"/><path class="cls-3" d="M116.37,155.15h-.79a3.61,3.61,0,0,1-2.52-.85l-.29-.31a4.18,4.18,0,0,1-3.18,1.16h-7.08c-.21,0-.32-.1-.32-.28v-1c0-.2.11-.3.32-.3h7.08a2.52,2.52,0,0,0,1.75-.5,2,2,0,0,0,.56-1.57V140c0-.19.1-.28.31-.28h1.11c.22,0,.33.09.33.28V152.4a1,1,0,0,0,.33.78,1.88,1.88,0,0,0,1.28.39h1.11Zm-7.61,4.45a.18.18,0,0,1,.21.2v.46a.18.18,0,0,1-.21.2h-4.07c-.15,0-.22-.07-.22-.2v-.46c0-.13.07-.2.22-.2h.66v-1.25a1.5,1.5,0,0,1,.53-1.14,1.85,1.85,0,0,1,1.27-.47,1.71,1.71,0,0,1,1.66,1l.09.22a.29.29,0,0,1,0,.09.19.19,0,0,1-.15.17l-.47.18a.18.18,0,0,1-.1,0,.22.22,0,0,1-.2-.13l-.08-.2a.78.78,0,0,0-.77-.46.83.83,0,0,0-.59.22.66.66,0,0,0-.25.53v1.25Zm-2.6-7.8c-.21,0-.32-.1-.32-.29v-9.84c0-.2.11-.3.32-.3h1.12c.22,0,.32.1.32.3v9.84c0,.19-.1.29-.32.29Z"/><path class="cls-3" d="M121.29,139.65a.27.27,0,0,1,.31.3v12.46a2.59,2.59,0,0,1-.83,2,3.29,3.29,0,0,1-2.21.73h-2.77v-1.58h2.78s0,0,0,0a1.38,1.38,0,0,0,.94-.29,1.09,1.09,0,0,0,.32-.88V140a.27.27,0,0,1,.31-.3Z"/><path class="cls-3" d="M147.7,155.15h-1.55a3.65,3.65,0,0,1-2.52-.86,1.93,1.93,0,0,1-.35-.39,5.25,5.25,0,0,1-3.47,1.25h-5.88a1.68,1.68,0,0,0-1.15.42,1.34,1.34,0,0,0-.47,1v2.88c0,.19-.1.29-.31.29h-1.13c-.21,0-.32-.1-.32-.29v-2.88a2.77,2.77,0,0,1,1-2.13,3.38,3.38,0,0,1,2.38-.89h.84V149a4.15,4.15,0,0,1,1.49-3.2,5.42,5.42,0,0,1,7.11,0,4.14,4.14,0,0,1,1.48,3.2v1.61a4.2,4.2,0,0,1-.58,2.12.93.93,0,0,0,.28.44,1.84,1.84,0,0,0,1.27.4h1.88Zm-7.89-1.58a3.43,3.43,0,0,0,2.34-.86,2.73,2.73,0,0,0,1-2.1V149a2.73,2.73,0,0,0-1-2.09,3.39,3.39,0,0,0-2.34-.86,3.32,3.32,0,0,0-2.32.86,2.73,2.73,0,0,0-1,2.09v4.57Z"/><path class="cls-3" d="M156.35,155.15h-.81a3.79,3.79,0,0,1-2.63-.79s0,0,0,0l0,.05,0,0a3.22,3.22,0,0,1-2.21.73H147v-1.58h3.63a1.31,1.31,0,0,0,.93-.28,1.11,1.11,0,0,0,.32-.89v-7.2c0-.2.1-.3.31-.3h1.11c.21,0,.32.1.32.3v7.49a.71.71,0,0,0,.2.55,2.15,2.15,0,0,0,1.42.33h1.11Zm-5.71,2c.21,0,.32.1.32.29v1.26c0,.19-.11.28-.32.28h-1.18c-.21,0-.31-.09-.31-.28v-1.26c0-.19.1-.29.31-.29Zm3.18,0c.22,0,.33.1.33.29v1.26c0,.19-.11.28-.33.28h-1.17c-.21,0-.32-.09-.32-.28v-1.26c0-.19.11-.29.32-.29Z"/><path class="cls-3" d="M165.24,145.53a5.4,5.4,0,0,1,3.8,1.38,4.52,4.52,0,0,1,1.49,3.47v2a2.55,2.55,0,0,1-.83,2,3.25,3.25,0,0,1-2.21.73H155.77v-1.58h11.71a1.42,1.42,0,0,0,1-.28,1.08,1.08,0,0,0,.32-.88v-2a3.06,3.06,0,0,0-1-2.37,3.64,3.64,0,0,0-2.56-.9h-5.38a.91.91,0,0,1-.62-.23.7.7,0,0,1-.25-.55,5.81,5.81,0,0,1,1.56-4.31,6,6,0,0,1,4.35-1.55h2c.21,0,.32.09.32.29v1c0,.19-.11.28-.32.28h-2c-2.49,0-3.86,1.17-4.12,3.49Z"/><path class="cls-3" d="M177.84,137.26c.15,0,.22.06.22.2v.46c0,.13-.07.2-.22.2h-4.06c-.14,0-.22-.07-.22-.2v-.46c0-.14.08-.2.22-.2h.67V136a1.49,1.49,0,0,1,.52-1.14,1.79,1.79,0,0,1,1.26-.47,1.67,1.67,0,0,1,1.66,1l.1.21a.11.11,0,0,1,0,.07.19.19,0,0,1,0,.09.22.22,0,0,1-.13.1l-.46.18-.1,0h-.07a.19.19,0,0,1-.12-.11l-.09-.21a.82.82,0,0,0-.79-.46.82.82,0,0,0-.58.22.69.69,0,0,0-.25.53v1.25Zm-1.47,2.39c.21,0,.32.1.32.3v14.9c0,.2-.11.3-.32.3h-1.12c-.21,0-.31-.1-.31-.3V140c0-.2.1-.3.31-.3Z"/><path class="cls-3" d="M200.62,153.57v1.58h-8.8a5.08,5.08,0,0,1-3.55-1.33,4.16,4.16,0,0,1-1.48-3.21V149a4.16,4.16,0,0,1,1.48-3.21,5.43,5.43,0,0,1,7.12,0,4.19,4.19,0,0,1,1.47,3.21v4.56ZM195.13,149a2.74,2.74,0,0,0-1-2.1,3.41,3.41,0,0,0-2.34-.85,3.31,3.31,0,0,0-2.31.85,2.71,2.71,0,0,0-1,2.1v1.6a2.71,2.71,0,0,0,1,2.1,3.28,3.28,0,0,0,2.31.86h3.31Zm-5.82-6.65c-.22,0-.32-.1-.32-.29v-1.26c0-.19.1-.28.32-.28h1.17c.22,0,.33.09.33.28v1.26c0,.19-.11.29-.33.29Zm3.18,0c-.21,0-.32-.1-.32-.29v-1.26c0-.19.11-.28.32-.28h1.18c.22,0,.33.09.33.28v1.26c0,.19-.11.29-.33.29Z"/><path class="cls-3" d="M216.42,155.15H215a3.66,3.66,0,0,1-2.51-.86,2.8,2.8,0,0,1-.35-.39,5.2,5.2,0,0,1-3.46,1.25h-9.19v-1.58h4.15V149a4.2,4.2,0,0,1,1.48-3.21,5.43,5.43,0,0,1,7.12,0,4.2,4.2,0,0,1,1.48,3.21v1.6a4.11,4.11,0,0,1-.59,2.12,1,1,0,0,0,.28.45,1.87,1.87,0,0,0,1.27.39h1.78Zm-7.78-1.58a3.34,3.34,0,0,0,2.33-.86,2.71,2.71,0,0,0,1-2.1V149a2.71,2.71,0,0,0-1-2.1,3.38,3.38,0,0,0-2.33-.85,3.34,3.34,0,0,0-2.32.85,2.71,2.71,0,0,0-1,2.1v4.56Z"/><path class="cls-3" d="M236.94,155.15h-.8a3.63,3.63,0,0,1-2.52-.85l0,0a.1.1,0,0,1,0-.05.9.9,0,0,1-.17.2,3.23,3.23,0,0,1-2.21.73H230a3.8,3.8,0,0,1-2.62-.79l0,0,0,0-.09.1h0a3.27,3.27,0,0,1-2.23.73h-1.19a3.77,3.77,0,0,1-2.62-.79l0,0s0,0,0,0l-.08.1a3.22,3.22,0,0,1-2.21.73h-3v-1.58h3.07a1.32,1.32,0,0,0,.94-.28,1.12,1.12,0,0,0,.31-.89v-7.22c0-.18.1-.28.32-.28h1.11c.22,0,.32.1.32.28v7.51a.7.7,0,0,0,.2.55,2.17,2.17,0,0,0,1.42.33h1.54a1.31,1.31,0,0,0,.93-.28,1.11,1.11,0,0,0,.32-.89v-6.65c0-.19.1-.28.31-.28h1.12c.21,0,.32.09.32.28v6.94a.71.71,0,0,0,.19.55,2.19,2.19,0,0,0,1.43.33h1.5a1.44,1.44,0,0,0,1-.28,1.12,1.12,0,0,0,.32-.89v-7.22c0-.18.1-.28.31-.28h1.12c.21,0,.31.1.31.28v7.22a1,1,0,0,0,.34.78,1.87,1.87,0,0,0,1.27.39h1.12Z"/><path class="cls-3" d="M242.66,144.9c.21,0,.32.1.32.28v7.23a2.58,2.58,0,0,1-.82,2,3.3,3.3,0,0,1-2.22.73h-3.58v-1.58H240a1.4,1.4,0,0,0,.93-.28,1.11,1.11,0,0,0,.31-.88v-7.23c0-.18.11-.28.33-.28Zm0-4.37c.21,0,.32.09.32.28v1.26c0,.19-.11.29-.32.29h-1.18c-.21,0-.31-.1-.31-.29v-1.26c0-.19.1-.28.31-.28Z"/><path class="cls-3" d="M271.26,155.15h-.83a3.78,3.78,0,0,1-2.62-.8s0,0,0,0-.07.07-.07.08a3.22,3.22,0,0,1-2.23.75h-8.35a5.24,5.24,0,0,1-3.64-1.35,4.3,4.3,0,0,1-.73-5.79,5,5,0,0,1,2.09-1.75l.5-.23.14,0h.1a.35.35,0,0,1,.19.14l.51.9a.34.34,0,0,1,0,.16.27.27,0,0,1-.18.23l-.5.22a3.49,3.49,0,0,0-1.42,1.18,2.94,2.94,0,0,0-.52,1.66,2.86,2.86,0,0,0,1,2.18,3.55,3.55,0,0,0,2.42.89h8.34a1.53,1.53,0,0,0,1-.28,1.12,1.12,0,0,0,.31-.89v-7.22c0-.18.11-.28.32-.28h1.1c.22,0,.33.1.33.28v7.51a.65.65,0,0,0,.21.55,2.14,2.14,0,0,0,1.41.33h1.12ZM261.65,157q.33,0,.33.3v1.25c0,.19-.11.29-.33.29h-1.17c-.21,0-.32-.1-.32-.29v-1.25c0-.2.11-.3.32-.3Z"/><path class="cls-3" d="M280.56,155.15h-.82a3.79,3.79,0,0,1-2.63-.79s0,0,0,0,0,0,0,0l-.1.1h0a3.23,3.23,0,0,1-2.2.73h-4.11v-1.58h4.14a1.31,1.31,0,0,0,.93-.28,1.09,1.09,0,0,0,.33-.89v-7.2a.27.27,0,0,1,.3-.3h1.12c.21,0,.32.1.32.3v7.49a.68.68,0,0,0,.21.55,2.1,2.1,0,0,0,1.41.33h1.12Zm-5.8-12.79c-.22,0-.33-.1-.33-.29v-1.26c0-.19.11-.28.33-.28H276c.21,0,.31.09.31.28v1.26c0,.19-.1.29-.31.29Zm3.19,0c-.21,0-.32-.1-.32-.29v-1.26c0-.19.11-.28.32-.28h1.16c.22,0,.33.09.33.28v1.26c0,.19-.11.29-.33.29Z"/><path class="cls-3" d="M297.58,155.15h-.93a3.73,3.73,0,0,1-2.62-.79s0,0,0,0l-.09.1a3.17,3.17,0,0,1-2.2.73H280v-1.58h11.71a1.48,1.48,0,0,0,1-.28,1.12,1.12,0,0,0,.32-.89v-2a3.11,3.11,0,0,0-1-2.38,3.67,3.67,0,0,0-2.58-.9h-5.35a.92.92,0,0,1-.63-.23.71.71,0,0,1-.27-.56,5.7,5.7,0,0,1,1.58-4.29,5.92,5.92,0,0,1,4.35-1.55h2c.21,0,.31.09.31.28v1c0,.19-.1.29-.31.29h-2c-2.49,0-3.86,1.15-4.12,3.47h4.44a5.4,5.4,0,0,1,3.8,1.38,4.54,4.54,0,0,1,1.51,3.48v2.3a.65.65,0,0,0,.21.55,2.07,2.07,0,0,0,1.41.33h1.22Z"/><path class="cls-3" d="M305.84,144.48a5.2,5.2,0,0,1,3.57,1.33,4.13,4.13,0,0,1,1.48,3.2v1.61a4.14,4.14,0,0,1-1.48,3.2,5.15,5.15,0,0,1-3.57,1.33h-9v-1.58h3.92V149a4.15,4.15,0,0,1,1.47-3.2A5.2,5.2,0,0,1,305.84,144.48Zm3.3,4.53a2.66,2.66,0,0,0-1-2.08,3.54,3.54,0,0,0-4.65,0,2.66,2.66,0,0,0-1,2.08v4.56h3.29a3.34,3.34,0,0,0,2.33-.86,2.71,2.71,0,0,0,1-2.09Z"/><path class="cls-3" d="M77.37,29.61l-5.49-7.43v7.47c0,.12-.07.18-.2.18H71q-.21,0-.21-.18V20.52a.46.46,0,0,1,.4-.47.63.63,0,0,1,.19,0,.52.52,0,0,1,.43.23l5.49,7.43V20.21c0-.12.06-.19.2-.19h.7c.14,0,.21.07.21.19v9.12a.47.47,0,0,1-.4.48l-.16,0A.56.56,0,0,1,77.37,29.61Z"/><path class="cls-3" d="M81.24,29a2.63,2.63,0,0,1-.93-2v-1a2.61,2.61,0,0,1,.93-2,3.42,3.42,0,0,1,4.51,0,2.61,2.61,0,0,1,.93,2v.37a.46.46,0,0,1-.16.36.56.56,0,0,1-.38.14H81.41V27A1.75,1.75,0,0,0,82,28.28a2.11,2.11,0,0,0,1.47.55,2,2,0,0,0,1.81-.95.21.21,0,0,1,.27-.08l.64.26a.2.2,0,0,1,.11.11.13.13,0,0,1,0,.06.13.13,0,0,1,0,.08,3,3,0,0,1-1.17,1.1,3.37,3.37,0,0,1-1.65.42A3.25,3.25,0,0,1,81.24,29Zm4.33-3.17a1.68,1.68,0,0,0-.65-1.23,2.14,2.14,0,0,0-1.43-.51,2.12,2.12,0,0,0-1.42.51,1.68,1.68,0,0,0-.65,1.23Z"/><path class="cls-3" d="M91,29.83a2.55,2.55,0,0,1-1.41-.43,2.06,2.06,0,0,1-.84-1.08l0,0V28.2c0-.07,0-.12.14-.15l.67-.19h.06a.16.16,0,0,1,.1,0,.24.24,0,0,1,.09.11l0,0a1.14,1.14,0,0,0,.45.59,1.34,1.34,0,0,0,.74.22h.73a1.34,1.34,0,0,0,.75-.22,1,1,0,0,0,.45-.59.83.83,0,0,0,0-.32.68.68,0,0,0-.24-.53.82.82,0,0,0-.58-.22H90.6a2,2,0,0,1-1.38-.51,1.59,1.59,0,0,1-.57-1.23,1.83,1.83,0,0,1,.11-.61,2.07,2.07,0,0,1,.84-1.1A2.42,2.42,0,0,1,91,23.08h.75a2.52,2.52,0,0,1,1.42.42A2,2,0,0,1,94,24.59l0,0a.17.17,0,0,1,0,.07q0,.11-.15.15l-.66.18h-.09a.18.18,0,0,1-.17-.12l0,0a1,1,0,0,0-.45-.58,1.3,1.3,0,0,0-.75-.23H91a1.38,1.38,0,0,0-.75.23,1.15,1.15,0,0,0-.44.58.85.85,0,0,0,0,.33.71.71,0,0,0,.24.53.87.87,0,0,0,.59.21h1.57a2,2,0,0,1,1.37.52,1.59,1.59,0,0,1,.57,1.23,2,2,0,0,1-.11.62,2,2,0,0,1-.84,1.09,2.6,2.6,0,0,1-1.42.42Z"/><path class="cls-3" d="M102.72,23.07a2.65,2.65,0,0,1,1.82.68,2.17,2.17,0,0,1,.76,1.64v4.26c0,.12-.07.18-.2.18h-.71c-.13,0-.2-.06-.2-.18V25.39a1.2,1.2,0,0,0-.43-.93,1.51,1.51,0,0,0-1-.39,2,2,0,0,0-1.29.29.61.61,0,0,0-.18.49v4.8q0,.18-.21.18h-.7q-.21,0-.21-.18v-4.8a.61.61,0,0,0-.18-.49,2.07,2.07,0,0,0-1.29-.29,1.49,1.49,0,0,0-1,.39,1.2,1.2,0,0,0-.43.93v4.26q0,.18-.21.18h-.7c-.13,0-.2-.06-.2-.18V25.39a2.14,2.14,0,0,1,.76-1.64,2.63,2.63,0,0,1,1.82-.68,3.14,3.14,0,0,1,2,.54A3.14,3.14,0,0,1,102.72,23.07Z"/><path class="cls-3" d="M113.59,29.65c0,.12-.06.18-.19.18h-.72a.17.17,0,0,1-.19-.18v-.53a3.3,3.3,0,0,1-2.08.71,3.25,3.25,0,0,1-2.26-.85,2.63,2.63,0,0,1-.93-2v-1a2.61,2.61,0,0,1,.93-2,3.21,3.21,0,0,1,2.26-.85,3.28,3.28,0,0,1,2.2.8,2.65,2.65,0,0,1,1,1.94Zm-3.18-.82a2.11,2.11,0,0,0,1.47-.55,1.72,1.72,0,0,0,.61-1.33v-1a1.7,1.7,0,0,0-.61-1.32,2.16,2.16,0,0,0-1.47-.55,2.13,2.13,0,0,0-1.47.55,1.7,1.7,0,0,0-.61,1.32v1a1.72,1.72,0,0,0,.61,1.33A2.08,2.08,0,0,0,110.41,28.83Z"/><path class="cls-3" d="M121.46,28.4a.17.17,0,0,1,.1.15.19.19,0,0,1,0,.11l-.2.26a2.33,2.33,0,0,1-.56.52,2.37,2.37,0,0,1-1.34.39,2.32,2.32,0,0,1-1.62-.61,1.88,1.88,0,0,1-.67-1.46V24.07h-1.42c-.13,0-.2-.06-.2-.18v-.63c0-.12.07-.18.2-.18h1.42V20.2c0-.13.06-.18.2-.18h.7c.13,0,.2.05.2.18v2.88h2.82c.13,0,.2.06.2.18v.63c0,.12-.07.18-.2.18h-2.82v3.69a1,1,0,0,0,.35.76,1.2,1.2,0,0,0,.84.31,1.27,1.27,0,0,0,.7-.21,1.16,1.16,0,0,0,.29-.26l.19-.26a.26.26,0,0,1,.16-.09.28.28,0,0,1,.12,0Z"/><path class="cls-3" d="M130.05,20a3.17,3.17,0,0,1,2.21.82,2.57,2.57,0,0,1,.92,2v6.82q0,.18-.21.18h-.7q-.21,0-.21-.18V26h-4v3.7c0,.12-.07.18-.2.18h-.71c-.13,0-.2-.06-.2-.18V22.83a2.57,2.57,0,0,1,.92-2A3.14,3.14,0,0,1,130.05,20Zm2,4.93V22.83a1.68,1.68,0,0,0-.59-1.28,2.17,2.17,0,0,0-2.84,0,1.68,1.68,0,0,0-.59,1.28V25Z"/><path class="cls-3" d="M141.23,29.53a.13.13,0,0,1,.05.12.2.2,0,0,1,0,.07.2.2,0,0,1-.19.11h-1a.2.2,0,0,1-.15-.06l-3.22-3.22-.52.38v2.71c0,.12-.07.19-.21.19h-.7a.18.18,0,0,1-.2-.19V26.5l0,0,0,0V20.2c0-.13.07-.18.2-.18h.7c.14,0,.21.05.21.18v5.45L139.87,23a.18.18,0,0,1,.13,0h0a.21.21,0,0,1,.12.07l.45.49a.17.17,0,0,1,.06.12c0,.05,0,.09-.09.14l-3,2.15Z"/><path class="cls-3" d="M143.8,29a2.6,2.6,0,0,1-.93-2v-1a2.58,2.58,0,0,1,.93-2,3.2,3.2,0,0,1,2.25-.85,3.24,3.24,0,0,1,2.26.85,2.61,2.61,0,0,1,.93,2v.37a.46.46,0,0,1-.16.36.56.56,0,0,1-.39.14H144V27a1.75,1.75,0,0,0,.61,1.33,2.1,2.1,0,0,0,1.47.55,2,2,0,0,0,1.81-.95.19.19,0,0,1,.17-.1.2.2,0,0,1,.1,0l.64.26a.2.2,0,0,1,.11.11.13.13,0,0,1,0,.06.13.13,0,0,1,0,.08,3,3,0,0,1-1.17,1.1,3.37,3.37,0,0,1-1.65.42A3.25,3.25,0,0,1,143.8,29Zm4.33-3.17a1.71,1.71,0,0,0-.65-1.23,2.14,2.14,0,0,0-1.43-.51,2.1,2.1,0,0,0-1.42.51,1.68,1.68,0,0,0-.65,1.23Z"/><path class="cls-3" d="M152.1,29a2.61,2.61,0,0,1-.94-2v-1a2.59,2.59,0,0,1,.94-2,3.2,3.2,0,0,1,2.25-.85,3.24,3.24,0,0,1,2.26.85,2.64,2.64,0,0,1,.93,2v.37a.48.48,0,0,1-.17.36.56.56,0,0,1-.38.14h-4.72V27a1.72,1.72,0,0,0,.61,1.33,2.08,2.08,0,0,0,1.47.55,2,2,0,0,0,1.81-.95.18.18,0,0,1,.16-.1.16.16,0,0,1,.1,0l.64.26a.17.17,0,0,1,.11.11.07.07,0,0,1,0,.06.31.31,0,0,1,0,.08,3.06,3.06,0,0,1-1.18,1.1,3.31,3.31,0,0,1-1.64.42A3.25,3.25,0,0,1,152.1,29Zm4.32-3.17a1.65,1.65,0,0,0-.65-1.23,2.12,2.12,0,0,0-1.42-.51,2.14,2.14,0,0,0-1.43.51,1.75,1.75,0,0,0-.65,1.23Z"/><path class="cls-3" d="M166.09,23.07a2.63,2.63,0,0,1,1.82.68,2.14,2.14,0,0,1,.76,1.64v4.26c0,.12-.07.18-.2.18h-.71c-.13,0-.2-.06-.2-.18V25.39a1.2,1.2,0,0,0-.43-.93,1.49,1.49,0,0,0-1-.39,2.07,2.07,0,0,0-1.29.29.61.61,0,0,0-.18.49v4.8q0,.18-.21.18h-.7q-.21,0-.21-.18v-4.8a.61.61,0,0,0-.18-.49,2.05,2.05,0,0,0-1.28-.29,1.48,1.48,0,0,0-1,.39,1.21,1.21,0,0,0-.44.93v4.26q0,.18-.21.18h-.7c-.13,0-.2-.06-.2-.18V25.39a2.14,2.14,0,0,1,.76-1.64,2.64,2.64,0,0,1,1.83-.68,3.18,3.18,0,0,1,2,.54A3.11,3.11,0,0,1,166.09,23.07Z"/><path class="cls-3" d="M180.58,23.6a2.09,2.09,0,0,1-1,1.76,2.11,2.11,0,0,1,1,1.76v2.53c0,.12-.07.18-.2.18h-.71c-.14,0-.2-.06-.2-.18V27.12a1.13,1.13,0,0,0-.42-.89,1.4,1.4,0,0,0-1-.37h-2.61v3.79c0,.12-.07.18-.2.18h-.71c-.13,0-.2-.06-.2-.18V21a.86.86,0,0,1,.3-.67,1.09,1.09,0,0,1,.74-.27h2.46v0a3.09,3.09,0,0,1,1.94.92,2.51,2.51,0,0,1,.8,1.86Zm-2.52,1.26a1.4,1.4,0,0,0,1-.37,1.15,1.15,0,0,0,.42-.89v-.77a1.68,1.68,0,0,0-.59-1.28,2.08,2.08,0,0,0-1.42-.53h-2v3.84Z"/><path class="cls-3" d="M183.43,29a2.63,2.63,0,0,1-.93-2v-1a2.61,2.61,0,0,1,.93-2,3.42,3.42,0,0,1,4.51,0,2.62,2.62,0,0,1,.94,2v.37a.48.48,0,0,1-.17.36.56.56,0,0,1-.38.14h-4.72V27a1.72,1.72,0,0,0,.61,1.33,2.08,2.08,0,0,0,1.47.55,2,2,0,0,0,1.8-.95.21.21,0,0,1,.17-.1.18.18,0,0,1,.1,0l.64.26a.17.17,0,0,1,.11.11.14.14,0,0,1,0,.06.16.16,0,0,1,0,.08,3,3,0,0,1-1.17,1.1,3.34,3.34,0,0,1-1.64.42A3.27,3.27,0,0,1,183.43,29Zm4.33-3.17a1.68,1.68,0,0,0-.65-1.23,2.25,2.25,0,0,0-2.85,0,1.71,1.71,0,0,0-.65,1.23Z"/><path class="cls-3" d="M191.73,29a2.59,2.59,0,0,1-.94-2v-1a2.59,2.59,0,0,1,.94-2,3.2,3.2,0,0,1,2.25-.85,3.35,3.35,0,0,1,1.73.47,2.89,2.89,0,0,1,1.18,1.22v0a.16.16,0,0,1,0,.09q0,.09-.12.15l-.65.26-.1,0a.17.17,0,0,1-.17-.11v0a1.83,1.83,0,0,0-.76-.8,2.2,2.2,0,0,0-1.13-.3,2.16,2.16,0,0,0-1.47.55,1.72,1.72,0,0,0-.61,1.32v1a1.69,1.69,0,0,0,.61,1.32,2.11,2.11,0,0,0,1.47.55,2.2,2.2,0,0,0,1.13-.3,1.78,1.78,0,0,0,.76-.8h0a.18.18,0,0,1,.17-.11l.1,0,.65.25c.09,0,.13.08.13.14a.16.16,0,0,1,0,.1h0a3,3,0,0,1-1.18,1.23,3.44,3.44,0,0,1-1.73.46A3.25,3.25,0,0,1,191.73,29Z"/><path class="cls-3" d="M200.16,29.65c0,.12-.07.18-.2.18h-.71c-.14,0-.2-.06-.2-.18V25.46a2.16,2.16,0,0,1,.78-1.69,2.68,2.68,0,0,1,1.87-.7,2.77,2.77,0,0,1,1.54.45,2.54,2.54,0,0,1,.65.61l.2.25a.16.16,0,0,1,0,.12.17.17,0,0,1-.1.14l-.59.35a.2.2,0,0,1-.11,0h0a.17.17,0,0,1-.13-.08l-.2-.26a1.43,1.43,0,0,0-.39-.35,1.65,1.65,0,0,0-2,.15,1.28,1.28,0,0,0-.45,1Z"/><path class="cls-3" d="M206.77,29a2.61,2.61,0,0,1-.93-2v-3.7c0-.12.07-.18.2-.18h.71c.13,0,.2.06.2.18V27a1.69,1.69,0,0,0,.61,1.32,2.24,2.24,0,0,0,2.94,0,1.69,1.69,0,0,0,.61-1.32v-3.7c0-.12.07-.18.2-.18H212c.13,0,.2.06.2.18V27a2.59,2.59,0,0,1-.94,2,3.25,3.25,0,0,1-2.25.85A3.29,3.29,0,0,1,206.77,29Z"/><path class="cls-3" d="M215.3,20a.12.12,0,0,1,.13.13v1.08a.12.12,0,0,1-.13.13h-.87c-.1,0-.14-.05-.14-.13V20.15c0-.08,0-.13.14-.13Zm-.08,2.76c.13,0,.2.06.2.18v6.69c0,.12-.07.18-.2.18h-.71q-.21,0-.21-.18V23q0-.18.21-.18Z"/><path class="cls-3" d="M223.31,28.4a.18.18,0,0,1,.09.15.19.19,0,0,1,0,.11l-.2.26a2.33,2.33,0,0,1-.56.52,2.37,2.37,0,0,1-1.34.39,2.32,2.32,0,0,1-1.62-.61,1.88,1.88,0,0,1-.67-1.46V24.07h-1.41q-.21,0-.21-.18v-.63q0-.18.21-.18H219V20.2c0-.13.06-.18.2-.18h.7c.13,0,.2.05.2.18v2.88h2.82c.13,0,.2.06.2.18v.63c0,.12-.07.18-.2.18h-2.82v3.69a1,1,0,0,0,.35.76,1.2,1.2,0,0,0,.84.31,1.27,1.27,0,0,0,.7-.21,1.16,1.16,0,0,0,.29-.26l.19-.26a.26.26,0,0,1,.17-.09.3.3,0,0,1,.11,0Z"/><path class="cls-3" d="M231.66,23.07a2.63,2.63,0,0,1,1.82.68,2.14,2.14,0,0,1,.76,1.64v4.26c0,.12-.06.18-.2.18h-.71c-.13,0-.19-.06-.19-.18V25.39a1.21,1.21,0,0,0-.44-.93,1.48,1.48,0,0,0-1-.39,2.07,2.07,0,0,0-1.29.29.61.61,0,0,0-.18.49v4.8q0,.18-.21.18h-.7c-.13,0-.21-.06-.21-.18v-4.8a.58.58,0,0,0-.18-.49,2.05,2.05,0,0,0-1.28-.29,1.48,1.48,0,0,0-1,.39,1.21,1.21,0,0,0-.44.93v4.26c0,.12-.07.18-.2.18h-.7c-.14,0-.2-.06-.2-.18V25.39a2.14,2.14,0,0,1,.76-1.64,2.63,2.63,0,0,1,1.82-.68,3.18,3.18,0,0,1,2,.54A3.13,3.13,0,0,1,231.66,23.07Z"/><path class="cls-3" d="M237.09,29a2.63,2.63,0,0,1-.93-2v-1a2.61,2.61,0,0,1,.93-2,3.42,3.42,0,0,1,4.51,0,2.61,2.61,0,0,1,.93,2v.37a.46.46,0,0,1-.16.36.56.56,0,0,1-.38.14h-4.72V27a1.72,1.72,0,0,0,.61,1.33,2.08,2.08,0,0,0,1.47.55,2,2,0,0,0,1.8-.95.21.21,0,0,1,.17-.1.2.2,0,0,1,.1,0l.64.26a.17.17,0,0,1,.11.11.14.14,0,0,1,0,.06.16.16,0,0,1,0,.08,3,3,0,0,1-1.17,1.1,3.36,3.36,0,0,1-1.64.42A3.27,3.27,0,0,1,237.09,29Zm4.33-3.17a1.68,1.68,0,0,0-.65-1.23,2.25,2.25,0,0,0-2.85,0,1.68,1.68,0,0,0-.65,1.23Z"/><path class="cls-3" d="M250.83,29.65c0,.12-.07.18-.2.18h-.71c-.13,0-.2-.06-.2-.18V25.94a1.72,1.72,0,0,0-.61-1.32,2.13,2.13,0,0,0-1.47-.55,2.16,2.16,0,0,0-1.47.55,1.72,1.72,0,0,0-.61,1.32v3.71a.17.17,0,0,1-.19.18h-.72c-.13,0-.2-.06-.2-.18V25.94a2.62,2.62,0,0,1,.94-2,3.42,3.42,0,0,1,4.51,0,2.62,2.62,0,0,1,.93,2Z"/><path class="cls-3" d="M258.71,28.4a.18.18,0,0,1,.09.15.26.26,0,0,1,0,.11l-.2.26a2.58,2.58,0,0,1-.57.52,2.34,2.34,0,0,1-1.34.39,2.32,2.32,0,0,1-1.62-.61,1.88,1.88,0,0,1-.67-1.46V24.07H253c-.14,0-.2-.06-.2-.18v-.63c0-.12.06-.18.2-.18h1.41V20.2c0-.13.07-.18.2-.18h.7c.14,0,.21.05.21.18v2.88h2.81c.14,0,.2.06.2.18v.63c0,.12-.06.18-.2.18h-2.81v3.69a1,1,0,0,0,.34.76,1.2,1.2,0,0,0,.84.31,1.23,1.23,0,0,0,.7-.21.89.89,0,0,0,.29-.26l.19-.26A.29.29,0,0,1,258,28a.41.41,0,0,1,.12,0Z"/><path class="cls-3" d="M265.09,29a2.54,2.54,0,0,1-.91-2V22.83a2.58,2.58,0,0,1,.91-2,3.37,3.37,0,0,1,4.41,0,2.58,2.58,0,0,1,.91,2V27a2.54,2.54,0,0,1-.91,2,3.34,3.34,0,0,1-4.41,0Zm.79-7.45a1.63,1.63,0,0,0-.59,1.28V27a1.63,1.63,0,0,0,.59,1.28,2.15,2.15,0,0,0,2.83,0A1.67,1.67,0,0,0,269.3,27V22.83a1.67,1.67,0,0,0-.59-1.28,2.15,2.15,0,0,0-2.83,0Z"/><path class="cls-3" d="M276.19,21a1.32,1.32,0,0,0-.94.35,1.1,1.1,0,0,0-.39.84V23h2.8c.14,0,.21.07.21.18v.64q0,.18-.21.18h-2.8v5.67c0,.12-.07.18-.2.18H274c-.13,0-.2-.06-.2-.18V24h-1.23c-.13,0-.2-.06-.2-.18v-.64c0-.11.07-.18.2-.18h1.23v-.77a2,2,0,0,1,.71-1.55,2.62,2.62,0,0,1,3.17-.2l.15.11a.15.15,0,0,1,.09.13.19.19,0,0,1,0,.12l-.43.5a.2.2,0,0,1-.15.09.27.27,0,0,1-.13-.05l-.15-.1A1.32,1.32,0,0,0,276.19,21Z"/><path class="cls-3" d="M283.59,21a1.32,1.32,0,0,0-.94.35,1.1,1.1,0,0,0-.39.84V23h2.81c.13,0,.2.07.2.18v.64c0,.12-.07.18-.2.18h-2.81v5.67c0,.12-.07.18-.2.18h-.7c-.13,0-.2-.06-.2-.18V24h-1.23c-.13,0-.2-.06-.2-.18v-.64c0-.11.07-.18.2-.18h1.23v-.77a2,2,0,0,1,.71-1.55,2.62,2.62,0,0,1,3.17-.2l.15.11a.15.15,0,0,1,.09.13.19.19,0,0,1,0,.12l-.43.5a.2.2,0,0,1-.15.09.27.27,0,0,1-.13-.05l-.15-.1A1.32,1.32,0,0,0,283.59,21Z"/><path class="cls-3" d="M288.29,20a.12.12,0,0,1,.13.13v1.08a.12.12,0,0,1-.13.13h-.87c-.1,0-.14-.05-.14-.13V20.15c0-.08,0-.13.14-.13Zm-.08,2.76c.13,0,.2.06.2.18v6.69c0,.12-.07.18-.2.18h-.71q-.21,0-.21-.18V23q0-.18.21-.18Z"/><path class="cls-3" d="M291.28,29a2.59,2.59,0,0,1-.94-2v-1a2.59,2.59,0,0,1,.94-2,3.2,3.2,0,0,1,2.25-.85,3.35,3.35,0,0,1,1.73.47,2.89,2.89,0,0,1,1.18,1.22v0a.16.16,0,0,1,0,.09q0,.09-.12.15l-.65.26-.1,0a.18.18,0,0,1-.17-.11v0a1.83,1.83,0,0,0-.76-.8,2.2,2.2,0,0,0-1.13-.3,2.16,2.16,0,0,0-1.47.55,1.72,1.72,0,0,0-.61,1.32v1a1.69,1.69,0,0,0,.61,1.32,2.11,2.11,0,0,0,1.47.55,2.2,2.2,0,0,0,1.13-.3,1.78,1.78,0,0,0,.76-.8h0a.2.2,0,0,1,.17-.11l.1,0,.65.25c.09,0,.13.08.13.14a.16.16,0,0,1,0,.1h0a3,3,0,0,1-1.18,1.23,3.44,3.44,0,0,1-1.73.46A3.25,3.25,0,0,1,291.28,29Z"/><path class="cls-3" d="M299.53,29a2.61,2.61,0,0,1-.94-2v-1a2.59,2.59,0,0,1,.94-2,3.2,3.2,0,0,1,2.25-.85,3.24,3.24,0,0,1,2.26.85,2.64,2.64,0,0,1,.93,2v.37a.48.48,0,0,1-.17.36.56.56,0,0,1-.38.14H299.7V27a1.72,1.72,0,0,0,.61,1.33,2.08,2.08,0,0,0,1.47.55,2,2,0,0,0,1.81-.95.19.19,0,0,1,.17-.1.15.15,0,0,1,.09,0l.64.26a.17.17,0,0,1,.11.11.07.07,0,0,1,0,.06.31.31,0,0,1,0,.08,3.06,3.06,0,0,1-1.18,1.1,3.31,3.31,0,0,1-1.64.42A3.25,3.25,0,0,1,299.53,29Zm4.32-3.17a1.65,1.65,0,0,0-.65-1.23,2.12,2.12,0,0,0-1.42-.51,2.14,2.14,0,0,0-1.43.51,1.75,1.75,0,0,0-.65,1.23Z"/></svg>